<?xml version="1.0" encoding="UTF-8" standalone="no"?>
<!-- Created with Inkscape (http://www.inkscape.org/) -->

<svg
   version="1.1"
   id="svg1"
   width="590.59351"
   height="119.48592"
   viewBox="0 0 590.59351 119.48592"
   xml:space="preserve"
   xmlns="http://www.w3.org/2000/svg"
   xmlns:svg="http://www.w3.org/2000/svg"><defs
     id="defs1"><clipPath
       clipPathUnits="userSpaceOnUse"
       id="clipPath104"><path
         d="M 0,1133.858 H 1700.787 V 0 H 0 Z"
         transform="translate(-629.54692,-579.79832)"
         id="path104" /></clipPath><clipPath
       clipPathUnits="userSpaceOnUse"
       id="clipPath106"><path
         d="M 0,1133.858 H 1700.787 V 0 H 0 Z"
         transform="translate(-657.31642,-597.03032)"
         id="path106" /></clipPath><clipPath
       clipPathUnits="userSpaceOnUse"
       id="clipPath108"><path
         d="M 0,1133.858 H 1700.787 V 0 H 0 Z"
         transform="translate(-570.15191,-568.29692)"
         id="path108" /></clipPath><clipPath
       clipPathUnits="userSpaceOnUse"
       id="clipPath110"><path
         d="M 0,1133.858 H 1700.787 V 0 H 0 Z"
         transform="translate(-687.31982,-564.01562)"
         id="path110" /></clipPath><clipPath
       clipPathUnits="userSpaceOnUse"
       id="clipPath112"><path
         d="M 0,1133.858 H 1700.787 V 0 H 0 Z"
         transform="translate(-771.29349,-589.89651)"
         id="path112" /></clipPath><clipPath
       clipPathUnits="userSpaceOnUse"
       id="clipPath114"><path
         d="M 0,1133.858 H 1700.787 V 0 H 0 Z"
         transform="translate(-869.1445,-579.79832)"
         id="path114" /></clipPath><clipPath
       clipPathUnits="userSpaceOnUse"
       id="clipPath116"><path
         d="M 0,1133.858 H 1700.787 V 0 H 0 Z"
         transform="translate(-715.37702,-604.49412)"
         id="path116" /></clipPath><clipPath
       clipPathUnits="userSpaceOnUse"
       id="clipPath120"><path
         d="M 0,1133.858 H 1700.787 V 0 H 0 Z"
         transform="translate(-794.08539,-554.89262)"
         id="path120" /></clipPath><clipPath
       clipPathUnits="userSpaceOnUse"
       id="clipPath122"><path
         d="M 0,1133.858 H 1700.787 V 0 H 0 Z"
         transform="translate(-813.28135,-554.89262)"
         id="path122" /></clipPath></defs><g
     id="layer-MC0"
     transform="translate(-1203.9931,-169.17756)"><g
       id="g133"
       transform="matrix(0.78160299,0,0,0.78160299,288.71034,58.365888)"><path
         id="path1-0"
         class="s1"
         d="m 1186.6884,156.69876 h 53.2131 v 24.22231 h -44.3935 v 89.50441 h 44.3935 v 24.22232 h -53.2131 -0.042 v -0.0422 c -4.3043,0 -8.2288,-1.77237 -11.014,-4.55751 -2.7851,-2.74295 -4.5153,-6.58307 -4.5575,-10.80298 l -0.042,-0.0422 v -0.0422 -106.97486 h 0.042 c 0.042,-4.30431 1.7724,-8.18664 4.5997,-10.97178 2.7852,-2.74295 6.6675,-4.43091 10.9296,-4.47311 l 0.042,-0.0422 z"
         style="fill:#c6d80e;fill-opacity:1;stroke-width:0.421992" /><path
         id="path2-9"
         class="s2"
         d="m 1310.6273,156.69876 h -53.2553 v 24.22231 h 44.3935 v 89.50441 h -44.3935 v 24.22232 h 53.2553 v -0.0422 c 4.3043,0 8.2288,-1.77237 11.014,-4.55751 2.7851,-2.74295 4.5153,-6.58307 4.5575,-10.80298 l 0.042,-0.0422 v -0.0422 -106.97486 h -0.042 c 0,-4.30431 -1.7724,-8.18664 -4.5997,-10.97178 -2.7852,-2.74295 -6.6253,-4.43091 -10.9296,-4.47311 z"
         style="fill:#c6d80e;fill-opacity:1;stroke-width:0.421992" /></g><g
       id="g131"
       transform="translate(785.41572,-34.669026)"><path
         id="path123"
         d="m 0,0 c 0,7.244 -2.561,13.427 -7.683,18.549 -5.14,5.122 -11.323,7.683 -18.548,7.683 -7.245,0 -13.446,-2.561 -18.568,-7.683 C -49.903,13.427 -52.464,7.244 -52.464,0 c 0,-7.226 2.561,-13.409 7.665,-18.549 5.122,-5.122 11.323,-7.683 18.568,-7.683 7.225,0 13.408,2.561 18.548,7.683 C -2.561,-13.409 0,-7.226 0,0 m -8.688,0.311 c 0,-4.811 -1.72,-8.945 -5.16,-12.366 -3.438,-3.457 -7.554,-5.177 -12.383,-5.177 -4.849,0 -8.983,1.72 -12.421,5.159 -3.439,3.439 -5.16,7.573 -5.16,12.384 0,4.848 1.721,8.981 5.178,12.421 3.42,3.439 7.554,5.159 12.403,5.159 4.829,0 8.945,-1.72 12.383,-5.159 3.44,-3.44 5.16,-7.573 5.16,-12.421"
         style="fill:#231f20;fill-opacity:1;fill-rule:nonzero;stroke:none"
         transform="matrix(1.3333333,0,0,-1.3333333,689.70749,269.81366)"
         clip-path="url(#clipPath104)" /><path
         id="path124"
         d="m 0,0 v 8.36 c -0.494,0.073 -1.226,0.11 -2.195,0.11 -4.903,0 -9.256,-1.829 -13.061,-5.488 -3.805,-3.677 -5.708,-8.067 -5.708,-13.19 v -32.378 h 8.909 v 31.72 c 0,3.146 0.97,5.781 2.945,7.921 1.902,2.031 4.373,3.054 7.372,3.054 C -0.933,0.109 -0.366,0.073 0,0"
         style="fill:#231f20;fill-opacity:1;fill-rule:nonzero;stroke:none"
         transform="matrix(1.3333333,0,0,-1.3333333,726.73349,246.83766)"
         clip-path="url(#clipPath106)" /><path
         id="path125"
         d="M 0,0 C -0.173,-0.186 -0.353,-0.371 -0.536,-0.553 -3.974,-4.011 -8.09,-5.73 -12.919,-5.73 c -4.849,0 -8.982,1.719 -12.421,5.159 -3.44,3.439 -5.159,7.573 -5.159,12.384 0,4.848 1.719,8.982 5.176,12.421 3.422,3.439 7.555,5.159 12.404,5.159 4.829,0 8.945,-1.72 12.383,-5.159 0.293,-0.293 0.575,-0.592 0.843,-0.895 l 6.097,5.905 c -0.253,0.272 -0.509,0.542 -0.775,0.807 -5.14,5.122 -11.323,7.684 -18.548,7.684 -7.245,0 -13.446,-2.562 -18.568,-7.684 -5.104,-5.122 -7.665,-11.305 -7.665,-18.549 0,-7.226 2.561,-13.408 7.665,-18.549 5.122,-5.122 11.323,-7.683 18.568,-7.683 7.225,0 13.408,2.561 18.548,7.683 0.272,0.274 0.535,0.551 0.792,0.829 z"
         style="fill:#231f20;fill-opacity:1;fill-rule:nonzero;stroke:none"
         transform="matrix(1.3333333,0,0,-1.3333333,610.51415,285.14886)"
         clip-path="url(#clipPath108)" /><path
         id="path126"
         d="M 0,0 C -1.163,1.024 -1.98,2.515 -2.438,4.478 L -9.7,40.479 h -9.219 l 7.303,-36.215 c 0.505,-2.014 1.401,-3.516 2.673,-4.506 1.262,-1.098 2.725,-1.646 4.409,-1.646 1.591,0 3.073,0.585 4.39,1.756 z"
         style="fill:#231f20;fill-opacity:1;fill-rule:nonzero;stroke:none"
         transform="matrix(1.3333333,0,0,-1.3333333,766.73802,290.85726)"
         clip-path="url(#clipPath110)" /><path
         id="path127"
         d="m 0,0 c -1.958,4.829 -5.104,8.634 -9.439,11.414 -4.317,2.799 -9.202,4.19 -14.616,4.19 -7.244,0 -13.354,-2.708 -18.348,-8.123 -5.031,-5.506 -7.555,-11.616 -7.555,-18.329 0,-7.775 2.67,-13.958 8.012,-18.568 5.049,-4.299 11.305,-6.457 18.769,-6.457 4.756,0 9.073,1.098 12.951,3.274 3.823,2.122 6.75,5.122 8.799,9 l -7.226,4.5 c -2.067,-2.78 -4.372,-4.902 -6.932,-6.365 -2.635,-1.537 -5.379,-2.305 -8.233,-2.305 -4.317,0 -8.286,1.792 -11.872,5.36 -3.659,3.53 -5.506,7.372 -5.506,11.561 0,4.299 1.847,8.396 5.506,12.274 3.586,3.805 7.555,5.708 11.872,5.708 5.342,0 9.44,-1.903 12.293,-5.708 l -21.183,-16.921 5.25,-6.128 z"
         style="fill:#c6d80e;fill-opacity:1;fill-rule:nonzero;stroke:none"
         transform="matrix(1.3333333,0,0,-1.3333333,878.70292,256.3494)"
         clip-path="url(#clipPath112)" /><path
         id="path128"
         d="m 0,0 c 0,7.244 -2.561,13.427 -7.683,18.549 -5.14,5.122 -11.323,7.683 -18.548,7.683 -7.245,0 -13.446,-2.561 -18.568,-7.683 C -49.903,13.427 -52.464,7.244 -52.464,0 c 0,-7.226 2.561,-13.409 7.665,-18.549 5.122,-5.122 11.323,-7.683 18.568,-7.683 7.225,0 13.408,2.561 18.548,7.683 C -2.561,-13.409 0,-7.226 0,0 m -8.688,0.311 c 0,-4.811 -1.72,-8.945 -5.16,-12.366 -3.438,-3.457 -7.554,-5.177 -12.383,-5.177 -4.848,0 -8.982,1.72 -12.421,5.159 -3.44,3.439 -5.16,7.573 -5.16,12.384 0,4.848 1.72,8.981 5.178,12.421 3.421,3.439 7.555,5.159 12.403,5.159 4.829,0 8.945,-1.72 12.383,-5.159 3.44,-3.44 5.16,-7.573 5.16,-12.421"
         style="fill:#c6d80e;fill-opacity:1;fill-rule:nonzero;stroke:none"
         transform="matrix(1.3333333,0,0,-1.3333333,1009.1709,269.81366)"
         clip-path="url(#clipPath114)" /><path
         id="path129"
         d="m 0,0 h -9.22 l -7.134,-36 c -0.093,-0.42 -0.207,-0.821 -0.344,-1.205 -0.817,-4.048 -2.712,-7.287 -5.686,-9.753 -1.748,-1.503 -3.644,-2.563 -5.69,-3.188 1.453,-0.447 2.986,-0.672 4.604,-0.672 3.878,0 7.317,1.281 10.317,3.86 3,2.487 4.902,5.763 5.708,9.86 z"
         style="fill:#c6d80e;fill-opacity:1;fill-rule:nonzero;stroke:none"
         transform="matrix(1.3333333,0,0,-1.3333333,804.14762,236.88593)"
         clip-path="url(#clipPath116)" /><path
         id="path130"
         d="m 0,0 c -3.28,0.747 -6.281,2.424 -9,5.039 -3.806,3.677 -5.708,8.068 -5.708,13.19 v 56.152 h 8.909 V 18.887 c 0,-3.146 0.969,-5.781 2.945,-7.921 C -2.013,10.068 -1.06,9.365 0,8.862 Z"
         style="fill:#c6d80e;fill-opacity:1;fill-rule:nonzero;stroke:none"
         transform="matrix(1.3333333,0,0,-1.3333333,909.09212,303.02126)"
         clip-path="url(#clipPath120)" /><path
         id="path131"
         d="m 0,0 c -3.28,0.747 -6.281,2.424 -9,5.039 -3.806,3.677 -5.708,8.068 -5.708,13.19 v 56.152 h 8.909 V 18.887 c 0,-3.146 0.969,-5.781 2.945,-7.921 C -2.013,10.068 -1.06,9.365 0,8.862 Z"
         style="fill:#c6d80e;fill-opacity:1;fill-rule:nonzero;stroke:none"
         transform="matrix(1.3333333,0,0,-1.3333333,934.68672,303.02126)"
         clip-path="url(#clipPath122)" /></g></g><style
     id="style1">
		.s0 { fill: #ced41d } 
		.s1 { fill: #231f20 } 
		.s2 { fill: #fefefe } 
	</style></svg>
